<?xml version="1.0" encoding="utf-8"?>
<!-- Generator: Adobe Illustrator 20.1.0, SVG Export Plug-In . SVG Version: 6.00 Build 0)  -->
<svg version="1.1" id="Layer_1" xmlns="http://www.w3.org/2000/svg" xmlns:xlink="http://www.w3.org/1999/xlink" x="0px" y="0px"
	 viewBox="0 0 2268.8 170" style="enable-background:new 0 0 2268.8 170;" xml:space="preserve">
<style type="text/css">
	.st0{fill:#B49483;}
</style>
<g>
	<polygon class="st0" points="108.7,0 92.4,0 0,170 0,170 16.3,170 	"/>
	<polygon class="st0" points="149.5,0 133.1,0 40.7,170 57.1,170 	"/>
	<polygon class="st0" points="190.2,0 173.9,0 81.5,170 97.8,170 	"/>
	<polygon class="st0" points="231,0 214.6,0 122.2,170 138.6,170 	"/>
	<polygon class="st0" points="271.7,0 255.4,0 163,170 179.4,170 	"/>
	<polygon class="st0" points="312.5,0 296.1,0 203.8,170 220.1,170 	"/>
	<polygon class="st0" points="353.2,0 336.9,0 244.5,170 260.9,170 	"/>
	<polygon class="st0" points="394,0 377.6,0 285.3,170 301.6,170 	"/>
	<polygon class="st0" points="434.8,0 418.4,0 326,170 342.4,170 	"/>
	<polygon class="st0" points="475.5,0 459.2,0 366.8,170 383.1,170 	"/>
	<polygon class="st0" points="516.3,0 499.9,0 407.5,170 423.9,170 	"/>
	<polygon class="st0" points="557,0 540.7,0 448.3,170 464.7,170 	"/>
	<polygon class="st0" points="597.8,0 581.4,0 489.1,170 505.4,170 	"/>
	<polygon class="st0" points="638.5,0 622.2,0 529.8,170 546.2,170 	"/>
	<polygon class="st0" points="679.3,0 662.9,0 570.6,170 586.9,170 	"/>
	<polygon class="st0" points="720.1,0 703.7,0 611.3,170 627.7,170 	"/>
	<polygon class="st0" points="760.8,0 744.5,0 652.1,170 668.4,170 	"/>
	<polygon class="st0" points="801.6,0 785.2,0 692.8,170 709.2,170 	"/>
	<polygon class="st0" points="842.3,0 826,0 733.6,170 750,170 	"/>
	<polygon class="st0" points="883.1,0 866.7,0 774.4,170 790.7,170 	"/>
	<polygon class="st0" points="923.8,0 907.5,0 815.1,170 831.5,170 	"/>
	<polygon class="st0" points="964.6,0 948.2,0 855.9,170 872.2,170 	"/>
	<polygon class="st0" points="1005.4,0 989,0 896.6,170 913,170 	"/>
	<polygon class="st0" points="1046.1,0 1029.8,0 937.4,170 953.7,170 	"/>
	<polygon class="st0" points="1086.9,0 1070.5,0 978.1,170 994.5,170 	"/>
	<polygon class="st0" points="1127.6,0 1111.3,0 1018.9,170 1035.2,170 	"/>
	<polygon class="st0" points="1168.4,0 1152,0 1059.6,170 1076,170 	"/>
	<polygon class="st0" points="1209.1,0 1192.8,0 1100.4,170 1116.8,170 	"/>
	<polygon class="st0" points="1249.9,0 1233.5,0 1141.2,170 1157.5,170 	"/>
	<polygon class="st0" points="1290.7,0 1274.3,0 1181.9,170 1198.3,170 	"/>
	<polygon class="st0" points="1331.4,0 1315.1,0 1222.7,170 1239,170 	"/>
	<polygon class="st0" points="1372.2,0 1355.8,0 1263.4,170 1279.8,170 	"/>
	<polygon class="st0" points="1412.9,0 1396.6,0 1304.2,170 1320.5,170 	"/>
	<polygon class="st0" points="1453.7,0 1437.3,0 1344.9,170 1361.3,170 	"/>
	<polygon class="st0" points="1494.4,0 1478.1,0 1385.7,170 1402.1,170 	"/>
	<polygon class="st0" points="1535.2,0 1518.8,0 1426.5,170 1442.8,170 	"/>
	<polygon class="st0" points="1575.9,0 1559.6,0 1467.2,170 1483.6,170 	"/>
	<polygon class="st0" points="1616.7,0 1600.3,0 1508,170 1524.3,170 	"/>
	<polygon class="st0" points="1657.5,0 1641.1,0 1548.7,170 1565.1,170 	"/>
	<polygon class="st0" points="1698.2,0 1681.9,0 1589.5,170 1605.8,170 	"/>
	<polygon class="st0" points="1739,0 1722.6,0 1630.2,170 1646.6,170 	"/>
	<polygon class="st0" points="1779.7,0 1763.4,0 1671,170 1687.4,170 	"/>
	<polygon class="st0" points="1820.5,0 1804.1,0 1711.8,170 1728.1,170 	"/>
	<polygon class="st0" points="1861.2,0 1844.9,0 1752.5,170 1768.9,170 	"/>
	<polygon class="st0" points="1902,0 1885.6,0 1793.3,170 1809.6,170 	"/>
	<polygon class="st0" points="1942.8,0 1926.4,0 1834,170 1850.4,170 	"/>
	<polygon class="st0" points="1983.5,0 1967.2,0 1874.8,170 1891.1,170 	"/>
	<polygon class="st0" points="2024.3,0 2007.9,0 1915.5,170 1931.9,170 	"/>
	<polygon class="st0" points="2065,0 2048.7,0 1956.3,170 1972.7,170 	"/>
	<polygon class="st0" points="2105.8,0 2089.4,0 1997.1,170 2013.4,170 	"/>
	<polygon class="st0" points="2146.5,0 2130.2,0 2037.8,170 2054.2,170 	"/>
	<polygon class="st0" points="2187.3,0 2170.9,0 2078.6,170 2094.9,170 	"/>
	<polygon class="st0" points="2228.1,0 2211.7,0 2119.3,170 2135.7,170 	"/>
	<polygon class="st0" points="2268.8,0 2252.5,0 2160.1,170 2176.4,170 	"/>
</g>
</svg>
