<?xml version="1.0" encoding="utf-8"?>
<!-- Generator: Adobe Illustrator 20.1.0, SVG Export Plug-In . SVG Version: 6.00 Build 0)  -->
<svg version="1.1" id="Layer_1" xmlns="http://www.w3.org/2000/svg" xmlns:xlink="http://www.w3.org/1999/xlink" x="0px" y="0px"
	 viewBox="0 0 471 334.3" style="enable-background:new 0 0 471 334.3;" xml:space="preserve">
<style type="text/css">
	.st0{fill:#4E342E;}
	.st1{fill:#4E342E;stroke:#4E342E;stroke-width:0.2268;stroke-miterlimit:10;}
	.st2{fill:#D1C0B9;}
	.st3{fill:#BCA095;}
	.st4{fill:none;stroke:#FFFFFF;stroke-miterlimit:10;}
	.st5{fill:#4E342E;stroke:#FFFFFF;stroke-miterlimit:10;}
	.st6{fill:none;stroke:#8D9FA0;stroke-width:2;stroke-linecap:round;stroke-linejoin:round;stroke-miterlimit:10;}
	.st7{fill:#F2E7E1;stroke:#FFFFFF;stroke-miterlimit:10;}
	.st8{fill:none;}
</style>
<g>
	<path class="st0" d="M5,37.2c7-5.3,13.9-10,21-14c7-4,13.9-7.4,20.7-10.2s13.5-5.1,20-6.8s12.7-3,18.6-3.8S96.8,1.1,102,1.1
		s10,0.3,14.3,0.9s8,1.5,11.2,2.6s5.7,2.4,7.6,3.9c0.9,0.7,1.2,1.5,1.2,2.4c-0.1,0.9-0.5,2-1.2,3.1s-1.7,2.4-2.9,3.7
		c-1.2,1.3-2.6,2.6-4.1,4s-3,2.8-4.6,4.2s-3.2,2.8-4.6,4.2c-1.5,1.4-3,2.7-4.5,4.1c-1.5,1.3-2.9,2.7-4.4,4s-2.9,2.7-4.4,4.1
		c-1.5,1.4-3,2.8-4.5,4.4c2.7-1.8,5.5-3.7,8.4-5.8s5.8-4.1,8.7-6.3c2.9-2.1,5.8-4.3,8.7-6.4c2.9-2.1,5.7-4.2,8.4-6.1
		c2.7-2,5.3-3.8,7.9-5.5c2.5-1.7,4.9-3.3,7-4.6c2.2-1.3,4.1-2.4,5.9-3.2c1.8-0.8,3.2-1.3,4.5-1.5c0.2,0,0.5,0,0.8,0.1
		s0.6,0.2,0.9,0.3c0.3,0.2,0.5,0.4,0.7,0.7s0.3,0.7,0.3,1.2c0,0.7-0.4,1.7-1.1,2.9c-0.7,1.2-1.5,2.6-2.6,4c-1.1,1.5-2.3,3-3.6,4.7
		c-1.4,1.7-2.8,3.3-4.2,5c-1.4,1.6-2.9,3.2-4.3,4.8c-1.4,1.5-2.7,2.9-3.8,4.1c-1.1,1.2-2.1,2.3-2.9,3.1c-0.8,0.8-1.3,1.4-1.5,1.6
		c0.2-0.2,0.8-0.6,1.8-1.3c0.9-0.7,2.1-1.6,3.5-2.6c1.4-1.1,3.1-2.3,4.9-3.6c1.8-1.3,3.8-2.8,5.8-4.2c2-1.5,4.2-3,6.4-4.6
		s4.3-3.1,6.5-4.6c2.1-1.5,4.2-2.9,6.2-4.2s3.8-2.5,5.4-3.5c1.6-1,3.1-1.9,4.3-2.5c1.2-0.7,2.1-1,2.7-1.2c0.4-0.1,0.8-0.1,1.2-0.1
		c0.4,0.1,0.7,0.2,1,0.3c0.3,0.2,0.5,0.4,0.6,0.8c0.1,0.3,0.2,0.7,0,1.2c-0.1,0.5-0.5,1.2-1,2.1s-1.3,1.9-2.3,3.1
		c-0.9,1.2-2,2.4-3.1,3.8c-1.2,1.4-2.4,2.8-3.6,4.3c-1.3,1.5-2.5,3-3.8,4.5s-2.5,3-3.6,4.5s-2.2,2.8-3.1,4.1
		c-0.9,1.3-1.7,2.5-2.2,3.6c-0.6,1.1-0.9,2-1,2.7c-0.1,0.8,0.1,1.3,0.5,1.7c0.5,0.4,1.6,0.5,3,0.4c1.5-0.1,3.2-0.4,5.3-0.9
		s4.4-1.1,6.9-2c2.5-0.8,5.1-1.7,7.7-2.7c2.6-1,5.3-2,7.9-3.1c2.6-1.1,5.1-2.2,7.4-3.3c2.3-1.1,4.3-2.1,6.1-3.1s3.2-1.9,4.2-2.7
		l0.1,0.2c-0.8,0.7-1.9,1.4-3.2,2.3c-1.3,0.8-2.8,1.7-4.5,2.7c-1.7,0.9-3.5,1.9-5.5,2.9s-4,1.9-6.2,2.9c-2.1,0.9-4.3,1.9-6.4,2.7
		c-2.2,0.9-4.3,1.7-6.4,2.4c-2.1,0.7-4,1.3-5.9,1.9c-1.9,0.5-3.6,0.9-5.1,1.2s-2.8,0.4-4,0.3c-1.1,0-1.9-0.3-2.5-0.7
		c-0.6-0.5-0.9-1.2-0.9-2.1c0-0.9,0.3-2,0.8-3.1c0.5-1.2,1.2-2.5,2-3.9c0.9-1.4,1.9-2.9,3-4.4s2.3-3,3.6-4.6s2.5-3.1,3.7-4.6
		s2.4-2.9,3.6-4.3c1.1-1.4,2.1-2.6,3-3.8c0.9-1.1,1.6-2.1,2.1-3c0.5-0.8,0.8-1.5,0.8-1.9c0-0.6-1-0.3-3.1,0.9s-5.3,3.3-9.6,6.3
		s-9.8,6.9-16.4,11.7c-6.6,4.8-14.4,10.4-23.4,17c-0.7,0.5-1.3,0.8-1.8,0.8s-0.9-0.1-1.1-0.3c-0.2-0.2-0.3-0.6-0.2-1
		s0.4-0.9,0.9-1.4c5.5-5.7,10.2-10.7,13.9-14.9c3.8-4.3,6.8-7.9,9-10.7c2.3-2.9,3.8-5,4.7-6.5s1.2-2.2,1.1-2.2
		c-0.7-0.1-1.8,0.1-3.2,0.7c-1.5,0.6-3.2,1.4-5.2,2.5s-4.2,2.4-6.6,4c-2.4,1.5-5,3.2-7.6,4.9c-2.6,1.8-5.3,3.6-8.1,5.5
		c-2.7,1.9-5.4,3.8-8,5.6c-2.6,1.8-5.1,3.6-7.5,5.3s-4.5,3.2-6.4,4.6c-1.9,1.4-3.5,2.5-4.9,3.4c-1.3,0.9-2.3,1.5-2.8,1.8
		c-0.2,0.1-0.3,0.1-0.5,0.1s-0.3-0.1-0.3-0.3c-0.1-0.1-0.1-0.3,0-0.5s0.2-0.4,0.5-0.7c1-1,2-2,3.2-3c1.1-1.1,2.5-2.3,4-3.8
		c1.5-1.4,3.3-3.1,5.3-5s4.3-4.1,7-6.8c2.9-2.8,5.3-5.2,7.3-7.2s3.6-3.7,4.8-5.2c1.2-1.4,1.9-2.6,2.2-3.5c0.3-0.9,0.2-1.6-0.3-2.2
		c-0.7-0.7-1.9-1.5-3.6-2.3c-1.7-0.8-3.8-1.5-6.3-2.2c-2.5-0.6-5.4-1.2-8.7-1.6c-3.3-0.4-6.9-0.7-10.9-0.8s-8.3,0.1-12.9,0.5
		S82,4.4,76.8,5.4S66.2,7.8,60.6,9.5C54.8,11.1,49,13.2,43,15.8S30.8,21.5,24.5,25C18.1,28.6,11.6,32.7,5,37.4V37.2z"/>
	<path class="st0" d="M203.8,26.7c-0.1-0.4-0.6-0.4-1.5,0.2c-0.8,0.6-2.1,1.5-3.7,2.9c-0.2,0.2-0.3,0.2-0.5,0.1c0,0-0.1-0.1-0.1-0.2
		s0-0.2,0.1-0.3c0.6-0.5,1.3-1.1,1.9-1.6c0.7-0.6,1.3-1,1.9-1.5c0.6-0.4,1.2-0.7,1.7-0.9c0.5-0.2,0.9-0.2,1.3,0
		c0.4,0.2,0.5,0.5,0.5,0.8c0,0.4-0.1,0.8-0.4,1.3c-0.2,0.5-0.6,1-1,1.6s-0.8,1.1-1.3,1.7c-0.4,0.6-0.9,1.2-1.3,1.7
		c-0.4,0.6-0.7,1.1-0.9,1.6s-0.4,0.9-0.4,1.2s0.2,0.6,0.6,0.8c0.4,0.2,1,0.1,1.6-0.4s1.3-1.1,2-1.9c0.7-0.8,1.4-1.7,2.2-2.6
		c0.7-1,1.5-1.9,2.1-2.7s1.3-1.5,1.9-2.1c0.6-0.5,1-0.8,1.4-0.8c0.3,0,0.5,0.2,0.6,0.5s0.1,0.7,0.1,1.2s-0.1,1-0.2,1.6
		c-0.1,0.6-0.2,1.1-0.3,1.7s-0.3,1-0.4,1.5c-0.1,0.4-0.2,0.7-0.2,0.9c0.4-0.3,0.8-0.6,1.2-1c0.4-0.3,0.8-0.7,1.3-1
		c0.5-0.4,1-0.8,1.5-1.2c0.5-0.4,1.2-1,1.9-1.5c0.2-0.2,0.3-0.2,0.5-0.1c0,0,0.1,0.1,0.1,0.2s0,0.2-0.1,0.3c-0.4,0.3-0.7,0.6-1.2,1
		c-0.4,0.4-0.9,0.8-1.4,1.3s-1.1,1-1.8,1.6c-0.7,0.6-1.4,1.2-2.3,1.9c-1.6,4.1-3.4,7.7-5.2,10.9c-1.9,3.2-3.8,6-5.7,8.3
		s-3.8,4.3-5.6,5.9c-1.8,1.6-3.5,2.7-5,3.5s-2.8,1.3-3.8,1.4c-1.1,0.1-1.8-0.1-2.2-0.7c-0.7-1-0.7-2.4,0.1-4.2
		c0.8-1.7,2.3-3.8,4.6-6.2c2.2-2.4,5.1-5.2,8.7-8.3s7.7-6.5,12.5-10.3c0.1-0.4,0.3-0.8,0.5-1.5c0.2-0.6,0.4-1.3,0.6-2
		c0.2-0.7,0.4-1.3,0.5-2c0.2-0.6,0.2-1.1,0.3-1.5c-0.3,0.3-0.7,0.8-1.2,1.5s-1.1,1.4-1.8,2.1c-0.7,0.8-1.4,1.5-2.1,2.3
		c-0.8,0.8-1.5,1.4-2.2,1.9s-1.4,0.9-2.1,1c-0.7,0.2-1.2,0-1.7-0.4c-0.5-0.5-0.8-1-0.9-1.7c0-0.6,0.1-1.3,0.4-2
		c0.3-0.7,0.6-1.4,1.1-2c0.5-0.7,0.9-1.3,1.4-1.9s0.8-1.1,1.1-1.5C203.7,27.1,203.8,26.8,203.8,26.7L203.8,26.7z M184.9,62.9
		c0.2,0.2,0.6,0.3,1.1,0.2c0.6,0,1.3-0.2,2.2-0.6c0.9-0.3,1.9-0.8,3-1.5c1.1-0.6,2.3-1.5,3.5-2.5s2.5-2.2,3.8-3.6
		c1.3-1.4,2.6-3,3.8-4.8c1.3-1.8,2.4-3.8,3.6-6.1c1.1-2.2,2.2-4.7,3.1-7.5c-2.1,2-4.3,3.9-6.4,5.9c-2.1,1.9-4.2,3.8-6.1,5.6
		c-1.9,1.8-3.7,3.5-5.3,5.1s-3,3-4,4.3c-1.1,1.3-1.8,2.4-2.2,3.3C184.5,61.8,184.5,62.5,184.9,62.9L184.9,62.9z"/>
	<path class="st1" d="M66.9,71.8c5-13.4,79.4-22.2,96.5-22.7c64.9-1.6,128.8,3.8,180.8,38.1c2.1,1.4,1.2,1.6,3.5,1.8
		c-0.7,0.1-1.3,0.2-1.9-0.2c-50.4-35.4-132-41.4-196.1-37C138.1,52.6,73.2,64,70.2,72.4c-0.2,0.7-1.1,1.2-2,1
		C67.3,73.3,66.7,72.6,66.9,71.8L66.9,71.8z"/>
	<path class="st0" d="M241.8,63c0,2.2-1.1,4.2-3.3,6s-4.5,2.7-7,2.7c-0.9,0-1.7-0.2-2.4-0.6s-1-0.8-1-1.3c0-1.4,0.4-2,1.3-2
		c0.5,0,0.8,0.2,0.8,0.6c0,0.1-0.1,0.3-0.2,0.4c-0.1,0.2-0.2,0.3-0.2,0.5c0,0.4,0.2,0.7,0.7,1s1.1,0.5,1.8,0.5
		c1.7,0,3.3-0.8,4.8-2.2c1.6-1.5,2.3-3,2.3-4.6c0-1.4-0.7-2.6-2.1-3.6c-1.4-1-3.2-1.5-5.3-1.5c-3.5,0-7.2,1.1-11.2,3.2
		c-4.4,2.3-6.6,4.7-6.6,7.1c0,1.9,1.1,3.2,3.4,4.1L230,78c3,1.1,4.5,2.8,4.5,5c0,3.4-1.8,6.1-5.3,8.2s-8.1,3.1-13.9,3.1
		c-4.8,0-8.9-0.8-12.2-2.4c-3.4-1.6-5-3.6-5-5.9c0-1.9,1.3-3.3,3.8-4c1.2-0.4,1.8-0.3,1.8,0c0,0-0.5,0.4-1.5,1
		c-1,0.7-1.5,1.5-1.5,2.6c0,2.4,1.4,4.3,4.3,5.7c2.9,1.4,6.7,2.1,11.5,2.1c4.7,0,8.6-0.9,11.8-2.6c3.1-1.7,4.7-3.9,4.7-6.4
		c0-2-1.4-3.5-4.2-4.6l-12-4.7c-2.4-0.9-3.6-2.5-3.6-4.8c0-3.2,2.1-6,6.4-8.6c4.3-2.6,8.9-3.9,13.9-3.9c2.7,0,4.7,0.5,6.2,1.4
		C241,60.2,241.8,61.4,241.8,63L241.8,63z"/>
	<path class="st0" d="M246.2,93.6c0.5,0,1.1-0.3,1.9-0.9c0.8-0.6,1.6-1.2,2.5-2s1.9-1.7,2.8-2.6c1-0.9,1.9-1.8,2.9-2.6
		c0.2-0.2,0.4-0.3,0.5-0.2c0,0,0.1,0.1,0.1,0.2s0,0.2-0.1,0.3c-0.5,0.4-1,0.9-1.7,1.6c-0.7,0.6-1.3,1.3-2.1,2
		c-0.7,0.7-1.5,1.4-2.2,2.1c-0.8,0.7-1.5,1.3-2.2,1.9s-1.4,1-2.1,1.3c-0.6,0.3-1.2,0.4-1.6,0.3c-0.5-0.1-0.8-0.3-1-0.6
		c-0.2-0.3-0.2-0.7-0.2-1.2c0-0.4,0.2-1,0.4-1.5c0.2-0.6,0.5-1.1,0.7-1.6c0.3-0.5,0.5-1,0.8-1.5c0.3-0.4,0.5-0.8,0.6-1.1
		c-0.2,0.2-0.6,0.5-1,0.9s-0.9,0.8-1.4,1.3s-1.1,1-1.6,1.5c-0.6,0.5-1.2,1-1.7,1.5c-0.6,0.5-1.1,0.9-1.6,1.2
		c-0.5,0.4-0.9,0.6-1.3,0.7c-0.7,0.3-1.2,0.3-1.6,0.2c-0.4-0.1-0.7-0.4-0.9-0.7c-0.2-0.3-0.4-0.6-0.5-1s-0.1-0.7-0.1-1
		c0-0.7,0.3-1.5,0.9-2.5c0.6-1,1.3-1.9,2.1-2.8s1.7-1.8,2.7-2.6c1-0.8,1.9-1.4,2.8-1.8c0.8-0.4,1.6-0.6,2.3-0.7s1.3-0.1,1.8,0
		s0.9,0.4,1.1,0.8c0.3,0.4,0.4,0.9,0.3,1.6c0.1,0.1,0.2,0.1,0.3,0.2s0.1,0.2,0.2,0.4c0.1,0.2,0.1,0.4,0.1,0.6c0,0.4-0.1,0.9-0.3,1.5
		s-0.5,1.2-0.8,1.8c-0.3,0.6-0.6,1.2-1,1.8c-0.3,0.6-0.6,1.1-0.8,1.5s-0.3,0.8-0.2,1.1C245.5,93.5,245.8,93.6,246.2,93.6L246.2,93.6
		z M235.7,93c0.1,0.2,0.5,0.1,1.1-0.2c0.6-0.4,1.3-0.8,2.2-1.5c0.8-0.6,1.7-1.3,2.7-2.2c1-0.8,1.9-1.5,2.7-2.2
		c0.9-0.7,1.6-1.3,2.2-1.8c0.6-0.5,1-0.7,1.2-0.7c-0.1-0.7-0.3-1.2-0.7-1.4c-0.4-0.2-0.9-0.2-1.6,0c-0.6,0.2-1.3,0.5-2.1,1.1
		c-0.8,0.5-1.5,1.1-2.3,1.8c-0.8,0.7-1.5,1.4-2.2,2.1c-0.7,0.8-1.3,1.5-1.9,2.1c-0.5,0.7-0.9,1.3-1.2,1.8
		C235.6,92.4,235.5,92.8,235.7,93L235.7,93z"/>
	<path class="st0" d="M263,79.8c0.4-0.4,1-1.1,1.8-1.9s1.8-1.8,2.8-2.8c1.1-1,2.2-2.1,3.4-3.2c1.2-1.1,2.4-2.2,3.6-3.2
		s2.3-1.9,3.4-2.7c1.1-0.8,2-1.3,2.7-1.7c0.3-0.1,0.5-0.2,0.8-0.2s0.5,0,0.6,0.1c0.2,0.1,0.2,0.3,0.2,0.5s-0.1,0.5-0.4,0.9
		c-0.4,0.6-1,1.3-1.9,2.1c-0.9,0.8-1.9,1.7-3,2.7s-2.3,2-3.6,3c-1.3,1-2.5,2-3.7,2.9s-2.2,1.7-3.2,2.4c-1,0.7-1.7,1.3-2.2,1.6
		c-1.6,2-2.9,3.8-3.9,5.3c-0.9,1.5-1.6,2.8-2.1,3.8c-0.4,1.1-0.7,1.9-0.7,2.5s0.1,1,0.3,1.2c0.3,0.3,0.6,0.4,1.2,0.3
		c0.5-0.1,1.1-0.3,1.8-0.6c0.7-0.3,1.4-0.7,2.2-1.2c0.8-0.5,1.5-1,2.3-1.5c1.8-1.3,3.8-2.8,5.9-4.6c0.2-0.2,0.4-0.3,0.5-0.2
		c0,0,0.1,0.1,0.1,0.2s0,0.2-0.1,0.3c-0.3,0.3-0.8,0.7-1.5,1.4c-0.7,0.7-1.5,1.4-2.4,2.2c-0.9,0.8-1.9,1.6-2.9,2.4s-2,1.5-3,2
		c-1,0.6-1.9,0.9-2.8,1s-1.6-0.1-2.2-0.6c-0.4-0.4-0.7-0.8-0.8-1.4c-0.1-0.6-0.1-1.2,0-1.9c0.1-0.7,0.3-1.4,0.6-2.2
		c0.3-0.8,0.6-1.5,1-2.2s0.8-1.4,1.3-2.1c0.4-0.7,0.9-1.3,1.3-1.8c-0.8,0.6-1.6,1.2-2.4,1.8c-0.8,0.7-1.6,1.4-2.6,2.3
		c-0.2,0.2-0.4,0.3-0.5,0.2c0-0.1-0.1-0.1-0.1-0.2s0-0.2,0.1-0.3c0.5-0.4,1.2-1,1.9-1.6c0.7-0.7,1.5-1.3,2.3-2s1.5-1.3,2.2-1.9
		C262.1,80.5,262.6,80.1,263,79.8L263,79.8z M281.2,65.1c-0.7,0.1-1.5,0.5-2.6,1.2s-2.2,1.5-3.4,2.5c-1.2,1-2.4,2.1-3.6,3.2
		c-1.2,1.2-2.3,2.3-3.2,3.4c2.1-1.6,4-3.1,5.7-4.4c0.7-0.6,1.5-1.2,2.2-1.8c0.7-0.6,1.4-1.2,2.1-1.7c0.6-0.5,1.2-1,1.7-1.4
		C280.6,65.6,281,65.3,281.2,65.1L281.2,65.1z"/>
	<path class="st0" d="M287,85.5c0.2-0.2,0.4-0.3,0.5-0.2c0,0,0.1,0.1,0.1,0.2s0,0.2-0.1,0.3c-1.2,1.2-2.2,2.2-3.3,2.9
		c-1,0.8-2,1.4-2.9,2c-0.9,0.5-1.8,1-2.7,1.3c-0.9,0.3-1.7,0.7-2.6,1c-0.4,0.4-0.9,0.8-1.5,1.2c-0.6,0.3-1.2,0.6-1.9,0.7
		c-0.6,0.1-1.3,0.2-1.8,0.2c-0.6,0-1.1-0.2-1.6-0.5s-0.8-0.7-1-1.3c-0.2-0.6-0.3-1.3-0.1-2.1c0.1-0.4,0.2-0.9,0.5-1.5s0.6-1.2,1-1.8
		c0.4-0.6,0.9-1.3,1.4-1.9s1.1-1.2,1.8-1.8c0.6-0.6,1.3-1,2.1-1.5c0.8-0.4,1.5-0.7,2.4-0.9c0.3-0.1,0.7-0.1,1.2-0.2
		c0.5,0,1,0.1,1.4,0.4c0.7,0.3,1.1,0.7,1.3,1.3c0.2,0.5,0.3,1.1,0.1,1.8c-0.1,0.7-0.3,1.3-0.7,2c-0.3,0.7-0.7,1.3-1.1,2
		c-0.4,0.6-0.8,1.2-1.2,1.6c-0.4,0.5-0.7,0.8-0.9,1c1.3-0.5,2.4-1,3.4-1.6s2-1.2,2.8-1.7c0.8-0.6,1.5-1.1,2.1-1.6
		C286.1,86.3,286.6,85.9,287,85.5L287,85.5z M279.4,83c-0.1-0.1-0.2-0.1-0.5-0.2s-0.7,0-1.1,0.2c-0.5,0.2-1,0.6-1.7,1.3
		c-0.7,0.6-1.4,1.6-2.2,2.9c-0.4,0.7-0.7,1.3-0.9,1.9c-0.2,0.6-0.3,1.1-0.4,1.6c0,0.5,0,0.8,0.2,1.1c0.1,0.3,0.4,0.4,0.7,0.4
		c0.3,0,0.7-0.2,1.2-0.6s1-0.9,1.5-1.5s1.1-1.3,1.6-2s0.9-1.4,1.3-2.1c0.3-0.7,0.6-1.3,0.7-1.8C279.7,83.6,279.6,83.2,279.4,83
		L279.4,83z M272.4,93.4c-0.6,0-1-0.3-1.3-0.7c-0.2-0.4-0.3-1-0.3-1.6c0.1-0.7,0.2-1.4,0.6-2.2c0.3-0.8,0.7-1.6,1.3-2.4
		c0.5-0.8,1.1-1.5,1.8-2.2c0.7-0.7,1.4-1.2,2.2-1.6c-1,0.5-2,1.2-2.8,2s-1.5,1.7-2.1,2.6s-1.1,1.8-1.4,2.6c-0.3,0.8-0.6,1.5-0.6,2.1
		c-0.1,0.6,0,1,0.2,1.3s0.4,0.4,0.7,0.5c0.3,0.1,0.6,0.1,0.9,0C271.9,93.5,272.1,93.5,272.4,93.4L272.4,93.4z"/>
	<path class="st0" d="M286.3,87c-0.2,0.2-0.4,0.3-0.5,0.2c-0.1-0.1-0.1-0.1-0.1-0.2s0-0.2,0.1-0.3c0.7-0.6,1.4-1.2,2.1-1.8
		c0.7-0.6,1.3-1.1,1.9-1.6s1.3-0.8,1.9-1.1c0.7-0.2,1.3-0.3,2-0.2c0.5,0.1,0.7,0.3,0.7,0.7c0,0.4-0.2,0.9-0.6,1.4
		c-0.3,0.6-0.8,1.2-1.4,1.9c-0.6,0.7-1.2,1.4-1.9,2.1c-0.7,0.7-1.3,1.4-2,2.1s-1.3,1.3-1.8,1.8s-0.9,0.9-1.2,1.2
		c-0.3,0.3-0.3,0.4-0.2,0.3c1.2-0.7,2.5-1.6,3.8-2.5s2.5-1.8,3.7-2.8c1.2-0.9,2.4-1.8,3.5-2.6c1.1-0.8,2.1-1.5,3.1-2.1
		c0.9-0.6,1.8-0.9,2.5-1.1s1.3-0.1,1.7,0.2c0.6,0.4,0.8,1,0.8,1.6c-0.1,0.7-0.3,1.4-0.7,2.1c-0.4,0.8-0.9,1.5-1.5,2.3
		s-1.2,1.5-1.7,2.2c-0.6,0.7-1,1.3-1.4,1.8s-0.5,0.8-0.4,1s0.3,0.2,0.7,0c0.4-0.2,0.9-0.5,1.5-0.9s1.3-0.9,2.1-1.5
		c0.8-0.6,1.6-1.2,2.4-1.9c0.8-0.6,1.6-1.3,2.4-1.9c0.8-0.7,1.5-1.2,2.1-1.8c0.2-0.2,0.4-0.3,0.5-0.2c0.1,0,0.1,0.1,0.1,0.2
		s0,0.2-0.1,0.3c-0.5,0.4-1.1,0.9-1.8,1.6c-0.7,0.6-1.5,1.3-2.3,2s-1.6,1.4-2.5,2.1s-1.7,1.3-2.5,1.9s-1.6,1-2.3,1.3
		c-0.7,0.3-1.3,0.4-1.8,0.3c-0.6-0.1-0.9-0.4-0.9-0.9s0.2-1.1,0.6-1.7c0.4-0.7,0.9-1.4,1.5-2.1c0.6-0.8,1.2-1.5,1.7-2.2
		s1-1.3,1.3-1.8s0.4-0.8,0.2-0.9c-0.3-0.2-0.7-0.2-1.2,0s-1.2,0.4-1.9,0.8c-0.7,0.4-1.5,0.9-2.4,1.4c-0.9,0.6-1.8,1.1-2.6,1.8
		c-0.9,0.6-1.8,1.2-2.6,1.9c-0.9,0.6-1.7,1.2-2.4,1.7c-0.7,0.5-1.4,1-1.9,1.3c-0.5,0.4-0.9,0.6-1.2,0.7c-0.5,0.2-1,0.2-1.3,0
		c-0.4-0.2-0.5-0.6-0.5-1.1c0.1-0.5,0.3-1.1,0.8-1.7c0.5-0.7,1.1-1.4,1.8-2.1c0.7-0.7,1.4-1.5,2.2-2.2c0.8-0.7,1.5-1.4,2.1-2
		s1.1-1.1,1.5-1.6c0.4-0.4,0.5-0.7,0.3-0.8c-0.1-0.1-0.3-0.1-0.5-0.1c-0.2,0.1-0.5,0.2-0.8,0.3c-0.3,0.2-0.6,0.4-1,0.6
		c-0.3,0.2-0.7,0.5-1,0.7C288.1,85.4,287.2,86.1,286.3,87L286.3,87z"/>
</g>
<g>
	<path class="st0" d="M5,37.2c7-5.3,13.9-10,21-14c7-4,13.9-7.4,20.7-10.2s13.5-5.1,20-6.8s12.7-3,18.6-3.8S96.8,1.1,102,1.1
		s10,0.3,14.3,0.9s8,1.5,11.2,2.6s5.7,2.4,7.6,3.9c0.9,0.7,1.2,1.5,1.2,2.4c-0.1,0.9-0.5,2-1.2,3.1s-1.7,2.4-2.9,3.7
		c-1.2,1.3-2.6,2.6-4.1,4s-3,2.8-4.6,4.2s-3.2,2.8-4.6,4.2c-1.5,1.4-3,2.7-4.5,4.1c-1.5,1.3-2.9,2.7-4.4,4s-2.9,2.7-4.4,4.1
		c-1.5,1.4-3,2.8-4.5,4.4c2.7-1.8,5.5-3.7,8.4-5.8s5.8-4.1,8.7-6.3c2.9-2.1,5.8-4.3,8.7-6.4c2.9-2.1,5.7-4.2,8.4-6.1
		c2.7-2,5.3-3.8,7.9-5.5c2.5-1.7,4.9-3.3,7-4.6c2.2-1.3,4.1-2.4,5.9-3.2c1.8-0.8,3.2-1.3,4.5-1.5c0.2,0,0.5,0,0.8,0.1
		s0.6,0.2,0.9,0.3c0.3,0.2,0.5,0.4,0.7,0.7s0.3,0.7,0.3,1.2c0,0.7-0.4,1.7-1.1,2.9c-0.7,1.2-1.5,2.6-2.6,4c-1.1,1.5-2.3,3-3.6,4.7
		c-1.4,1.7-2.8,3.3-4.2,5c-1.4,1.6-2.9,3.2-4.3,4.8c-1.4,1.5-2.7,2.9-3.8,4.1c-1.1,1.2-2.1,2.3-2.9,3.1c-0.8,0.8-1.3,1.4-1.5,1.6
		c0.2-0.2,0.8-0.6,1.8-1.3c0.9-0.7,2.1-1.6,3.5-2.6c1.4-1.1,3.1-2.3,4.9-3.6c1.8-1.3,3.8-2.8,5.8-4.2c2-1.5,4.2-3,6.4-4.6
		s4.3-3.1,6.5-4.6c2.1-1.5,4.2-2.9,6.2-4.2s3.8-2.5,5.4-3.5c1.6-1,3.1-1.9,4.3-2.5c1.2-0.7,2.1-1,2.7-1.2c0.4-0.1,0.8-0.1,1.2-0.1
		c0.4,0.1,0.7,0.2,1,0.3c0.3,0.2,0.5,0.4,0.6,0.8c0.1,0.3,0.2,0.7,0,1.2c-0.1,0.5-0.5,1.2-1,2.1s-1.3,1.9-2.3,3.1
		c-0.9,1.2-2,2.4-3.1,3.8c-1.2,1.4-2.4,2.8-3.6,4.3c-1.3,1.5-2.5,3-3.8,4.5s-2.5,3-3.6,4.5s-2.2,2.8-3.1,4.1
		c-0.9,1.3-1.7,2.5-2.2,3.6c-0.6,1.1-0.9,2-1,2.7c-0.1,0.8,0.1,1.3,0.5,1.7c0.5,0.4,1.6,0.5,3,0.4c1.5-0.1,3.2-0.4,5.3-0.9
		s4.4-1.1,6.9-2c2.5-0.8,5.1-1.7,7.7-2.7c2.6-1,5.3-2,7.9-3.1c2.6-1.1,5.1-2.2,7.4-3.3c2.3-1.1,4.3-2.1,6.1-3.1s3.2-1.9,4.2-2.7
		l0.1,0.2c-0.8,0.7-1.9,1.4-3.2,2.3c-1.3,0.8-2.8,1.7-4.5,2.7c-1.7,0.9-3.5,1.9-5.5,2.9s-4,1.9-6.2,2.9c-2.1,0.9-4.3,1.9-6.4,2.7
		c-2.2,0.9-4.3,1.7-6.4,2.4c-2.1,0.7-4,1.3-5.9,1.9c-1.9,0.5-3.6,0.9-5.1,1.2s-2.8,0.4-4,0.3c-1.1,0-1.9-0.3-2.5-0.7
		c-0.6-0.5-0.9-1.2-0.9-2.1c0-0.9,0.3-2,0.8-3.1c0.5-1.2,1.2-2.5,2-3.9c0.9-1.4,1.9-2.9,3-4.4s2.3-3,3.6-4.6s2.5-3.1,3.7-4.6
		s2.4-2.9,3.6-4.3c1.1-1.4,2.1-2.6,3-3.8c0.9-1.1,1.6-2.1,2.1-3c0.5-0.8,0.8-1.5,0.8-1.9c0-0.6-1-0.3-3.1,0.9s-5.3,3.3-9.6,6.3
		s-9.8,6.9-16.4,11.7c-6.6,4.8-14.4,10.4-23.4,17c-0.7,0.5-1.3,0.8-1.8,0.8s-0.9-0.1-1.1-0.3c-0.2-0.2-0.3-0.6-0.2-1
		s0.4-0.9,0.9-1.4c5.5-5.7,10.2-10.7,13.9-14.9c3.8-4.3,6.8-7.9,9-10.7c2.3-2.9,3.8-5,4.7-6.5s1.2-2.2,1.1-2.2
		c-0.7-0.1-1.8,0.1-3.2,0.7c-1.5,0.6-3.2,1.4-5.2,2.5s-4.2,2.4-6.6,4c-2.4,1.5-5,3.2-7.6,4.9c-2.6,1.8-5.3,3.6-8.1,5.5
		c-2.7,1.9-5.4,3.8-8,5.6c-2.6,1.8-5.1,3.6-7.5,5.3s-4.5,3.2-6.4,4.6c-1.9,1.4-3.5,2.5-4.9,3.4c-1.3,0.9-2.3,1.5-2.8,1.8
		c-0.2,0.1-0.3,0.1-0.5,0.1s-0.3-0.1-0.3-0.3c-0.1-0.1-0.1-0.3,0-0.5s0.2-0.4,0.5-0.7c1-1,2-2,3.2-3c1.1-1.1,2.5-2.3,4-3.8
		c1.5-1.4,3.3-3.1,5.3-5s4.3-4.1,7-6.8c2.9-2.8,5.3-5.2,7.3-7.2s3.6-3.7,4.8-5.2c1.2-1.4,1.9-2.6,2.2-3.5c0.3-0.9,0.2-1.6-0.3-2.2
		c-0.7-0.7-1.9-1.5-3.6-2.3c-1.7-0.8-3.8-1.5-6.3-2.2c-2.5-0.6-5.4-1.2-8.7-1.6c-3.3-0.4-6.9-0.7-10.9-0.8s-8.3,0.1-12.9,0.5
		S82,4.4,76.8,5.4S66.2,7.8,60.6,9.5C54.8,11.1,49,13.2,43,15.8S30.8,21.5,24.5,25C18.1,28.6,11.6,32.7,5,37.4V37.2z"/>
	<path class="st0" d="M203.8,26.7c-0.1-0.4-0.6-0.4-1.5,0.2c-0.8,0.6-2.1,1.5-3.7,2.9c-0.2,0.2-0.3,0.2-0.5,0.1c0,0-0.1-0.1-0.1-0.2
		s0-0.2,0.1-0.3c0.6-0.5,1.3-1.1,1.9-1.6c0.7-0.6,1.3-1,1.9-1.5c0.6-0.4,1.2-0.7,1.7-0.9c0.5-0.2,0.9-0.2,1.3,0
		c0.4,0.2,0.5,0.5,0.5,0.8c0,0.4-0.1,0.8-0.4,1.3c-0.2,0.5-0.6,1-1,1.6s-0.8,1.1-1.3,1.7c-0.4,0.6-0.9,1.2-1.3,1.7
		c-0.4,0.6-0.7,1.1-0.9,1.6s-0.4,0.9-0.4,1.2s0.2,0.6,0.6,0.8c0.4,0.2,1,0.1,1.6-0.4s1.3-1.1,2-1.9c0.7-0.8,1.4-1.7,2.2-2.6
		c0.7-1,1.5-1.9,2.1-2.7s1.3-1.5,1.9-2.1c0.6-0.5,1-0.8,1.4-0.8c0.3,0,0.5,0.2,0.6,0.5s0.1,0.7,0.1,1.2s-0.1,1-0.2,1.6
		c-0.1,0.6-0.2,1.1-0.3,1.7s-0.3,1-0.4,1.5c-0.1,0.4-0.2,0.7-0.2,0.9c0.4-0.3,0.8-0.6,1.2-1c0.4-0.3,0.8-0.7,1.3-1
		c0.5-0.4,1-0.8,1.5-1.2c0.5-0.4,1.2-1,1.9-1.5c0.2-0.2,0.3-0.2,0.5-0.1c0,0,0.1,0.1,0.1,0.2s0,0.2-0.1,0.3c-0.4,0.3-0.7,0.6-1.2,1
		c-0.4,0.4-0.9,0.8-1.4,1.3s-1.1,1-1.8,1.6c-0.7,0.6-1.4,1.2-2.3,1.9c-1.6,4.1-3.4,7.7-5.2,10.9c-1.9,3.2-3.8,6-5.7,8.3
		s-3.8,4.3-5.6,5.9c-1.8,1.6-3.5,2.7-5,3.5s-2.8,1.3-3.8,1.4c-1.1,0.1-1.8-0.1-2.2-0.7c-0.7-1-0.7-2.4,0.1-4.2
		c0.8-1.7,2.3-3.8,4.6-6.2c2.2-2.4,5.1-5.2,8.7-8.3s7.7-6.5,12.5-10.3c0.1-0.4,0.3-0.8,0.5-1.5c0.2-0.6,0.4-1.3,0.6-2
		c0.2-0.7,0.4-1.3,0.5-2c0.2-0.6,0.2-1.1,0.3-1.5c-0.3,0.3-0.7,0.8-1.2,1.5s-1.1,1.4-1.8,2.1c-0.7,0.8-1.4,1.5-2.1,2.3
		c-0.8,0.8-1.5,1.4-2.2,1.9s-1.4,0.9-2.1,1c-0.7,0.2-1.2,0-1.7-0.4c-0.5-0.5-0.8-1-0.9-1.7c0-0.6,0.1-1.3,0.4-2
		c0.3-0.7,0.6-1.4,1.1-2c0.5-0.7,0.9-1.3,1.4-1.9s0.8-1.1,1.1-1.5C203.7,27.1,203.8,26.8,203.8,26.7L203.8,26.7z M184.9,62.9
		c0.2,0.2,0.6,0.3,1.1,0.2c0.6,0,1.3-0.2,2.2-0.6c0.9-0.3,1.9-0.8,3-1.5c1.1-0.6,2.3-1.5,3.5-2.5s2.5-2.2,3.8-3.6
		c1.3-1.4,2.6-3,3.8-4.8c1.3-1.8,2.4-3.8,3.6-6.1c1.1-2.2,2.2-4.7,3.1-7.5c-2.1,2-4.3,3.9-6.4,5.9c-2.1,1.9-4.2,3.8-6.1,5.6
		c-1.9,1.8-3.7,3.5-5.3,5.1s-3,3-4,4.3c-1.1,1.3-1.8,2.4-2.2,3.3C184.5,61.8,184.5,62.5,184.9,62.9L184.9,62.9z"/>
	<path class="st1" d="M66.9,71.8c5-13.4,79.4-22.2,96.5-22.7c64.9-1.6,128.8,3.8,180.8,38.1c2.1,1.4,1.2,1.6,3.5,1.8
		c-0.7,0.1-1.3,0.2-1.9-0.2c-50.4-35.4-132-41.4-196.1-37C138.1,52.6,73.2,64,70.2,72.4c-0.2,0.7-1.1,1.2-2,1
		C67.3,73.3,66.7,72.6,66.9,71.8L66.9,71.8z"/>
	<path class="st0" d="M241.8,63c0,2.2-1.1,4.2-3.3,6s-4.5,2.7-7,2.7c-0.9,0-1.7-0.2-2.4-0.6s-1-0.8-1-1.3c0-1.4,0.4-2,1.3-2
		c0.5,0,0.8,0.2,0.8,0.6c0,0.1-0.1,0.3-0.2,0.4c-0.1,0.2-0.2,0.3-0.2,0.5c0,0.4,0.2,0.7,0.7,1s1.1,0.5,1.8,0.5
		c1.7,0,3.3-0.8,4.8-2.2c1.6-1.5,2.3-3,2.3-4.6c0-1.4-0.7-2.6-2.1-3.6c-1.4-1-3.2-1.5-5.3-1.5c-3.5,0-7.2,1.1-11.2,3.2
		c-4.4,2.3-6.6,4.7-6.6,7.1c0,1.9,1.1,3.2,3.4,4.1L230,78c3,1.1,4.5,2.8,4.5,5c0,3.4-1.8,6.1-5.3,8.2s-8.1,3.1-13.9,3.1
		c-4.8,0-8.9-0.8-12.2-2.4c-3.4-1.6-5-3.6-5-5.9c0-1.9,1.3-3.3,3.8-4c1.2-0.4,1.8-0.3,1.8,0c0,0-0.5,0.4-1.5,1
		c-1,0.7-1.5,1.5-1.5,2.6c0,2.4,1.4,4.3,4.3,5.7c2.9,1.4,6.7,2.1,11.5,2.1c4.7,0,8.6-0.9,11.8-2.6c3.1-1.7,4.7-3.9,4.7-6.4
		c0-2-1.4-3.5-4.2-4.6l-12-4.7c-2.4-0.9-3.6-2.5-3.6-4.8c0-3.2,2.1-6,6.4-8.6c4.3-2.6,8.9-3.9,13.9-3.9c2.7,0,4.7,0.5,6.2,1.4
		C241,60.2,241.8,61.4,241.8,63L241.8,63z"/>
	<path class="st0" d="M246.2,93.6c0.5,0,1.1-0.3,1.9-0.9c0.8-0.6,1.6-1.2,2.5-2s1.9-1.7,2.8-2.6c1-0.9,1.9-1.8,2.9-2.6
		c0.2-0.2,0.4-0.3,0.5-0.2c0,0,0.1,0.1,0.1,0.2s0,0.2-0.1,0.3c-0.5,0.4-1,0.9-1.7,1.6c-0.7,0.6-1.3,1.3-2.1,2
		c-0.7,0.7-1.5,1.4-2.2,2.1c-0.8,0.7-1.5,1.3-2.2,1.9s-1.4,1-2.1,1.3c-0.6,0.3-1.2,0.4-1.6,0.3c-0.5-0.1-0.8-0.3-1-0.6
		c-0.2-0.3-0.2-0.7-0.2-1.2c0-0.4,0.2-1,0.4-1.5c0.2-0.6,0.5-1.1,0.7-1.6c0.3-0.5,0.5-1,0.8-1.5c0.3-0.4,0.5-0.8,0.6-1.1
		c-0.2,0.2-0.6,0.5-1,0.9s-0.9,0.8-1.4,1.3s-1.1,1-1.6,1.5c-0.6,0.5-1.2,1-1.7,1.5c-0.6,0.5-1.1,0.9-1.6,1.2
		c-0.5,0.4-0.9,0.6-1.3,0.7c-0.7,0.3-1.2,0.3-1.6,0.2c-0.4-0.1-0.7-0.4-0.9-0.7c-0.2-0.3-0.4-0.6-0.5-1s-0.1-0.7-0.1-1
		c0-0.7,0.3-1.5,0.9-2.5c0.6-1,1.3-1.9,2.1-2.8s1.7-1.8,2.7-2.6c1-0.8,1.9-1.4,2.8-1.8c0.8-0.4,1.6-0.6,2.3-0.7s1.3-0.1,1.8,0
		s0.9,0.4,1.1,0.8c0.3,0.4,0.4,0.9,0.3,1.6c0.1,0.1,0.2,0.1,0.3,0.2s0.1,0.2,0.2,0.4c0.1,0.2,0.1,0.4,0.1,0.6c0,0.4-0.1,0.9-0.3,1.5
		s-0.5,1.2-0.8,1.8c-0.3,0.6-0.6,1.2-1,1.8c-0.3,0.6-0.6,1.1-0.8,1.5s-0.3,0.8-0.2,1.1C245.5,93.5,245.8,93.6,246.2,93.6L246.2,93.6
		z M235.7,93c0.1,0.2,0.5,0.1,1.1-0.2c0.6-0.4,1.3-0.8,2.2-1.5c0.8-0.6,1.7-1.3,2.7-2.2c1-0.8,1.9-1.5,2.7-2.2
		c0.9-0.7,1.6-1.3,2.2-1.8c0.6-0.5,1-0.7,1.2-0.7c-0.1-0.7-0.3-1.2-0.7-1.4c-0.4-0.2-0.9-0.2-1.6,0c-0.6,0.2-1.3,0.5-2.1,1.1
		c-0.8,0.5-1.5,1.1-2.3,1.8c-0.8,0.7-1.5,1.4-2.2,2.1c-0.7,0.8-1.3,1.5-1.9,2.1c-0.5,0.7-0.9,1.3-1.2,1.8
		C235.6,92.4,235.5,92.8,235.7,93L235.7,93z"/>
	<path class="st0" d="M263,79.8c0.4-0.4,1-1.1,1.8-1.9s1.8-1.8,2.8-2.8c1.1-1,2.2-2.1,3.4-3.2c1.2-1.1,2.4-2.2,3.6-3.2
		s2.3-1.9,3.4-2.7c1.1-0.8,2-1.3,2.7-1.7c0.3-0.1,0.5-0.2,0.8-0.2s0.5,0,0.6,0.1c0.2,0.1,0.2,0.3,0.2,0.5s-0.1,0.5-0.4,0.9
		c-0.4,0.6-1,1.3-1.9,2.1c-0.9,0.8-1.9,1.7-3,2.7s-2.3,2-3.6,3c-1.3,1-2.5,2-3.7,2.9s-2.2,1.7-3.2,2.4c-1,0.7-1.7,1.3-2.2,1.6
		c-1.6,2-2.9,3.8-3.9,5.3c-0.9,1.5-1.6,2.8-2.1,3.8c-0.4,1.1-0.7,1.9-0.7,2.5s0.1,1,0.3,1.2c0.3,0.3,0.6,0.4,1.2,0.3
		c0.5-0.1,1.1-0.3,1.8-0.6c0.7-0.3,1.4-0.7,2.2-1.2c0.8-0.5,1.5-1,2.3-1.5c1.8-1.3,3.8-2.8,5.9-4.6c0.2-0.2,0.4-0.3,0.5-0.2
		c0,0,0.1,0.1,0.1,0.2s0,0.2-0.1,0.3c-0.3,0.3-0.8,0.7-1.5,1.4c-0.7,0.7-1.5,1.4-2.4,2.2c-0.9,0.8-1.9,1.6-2.9,2.4s-2,1.5-3,2
		c-1,0.6-1.9,0.9-2.8,1s-1.6-0.1-2.2-0.6c-0.4-0.4-0.7-0.8-0.8-1.4c-0.1-0.6-0.1-1.2,0-1.9c0.1-0.7,0.3-1.4,0.6-2.2
		c0.3-0.8,0.6-1.5,1-2.2s0.8-1.4,1.3-2.1c0.4-0.7,0.9-1.3,1.3-1.8c-0.8,0.6-1.6,1.2-2.4,1.8c-0.8,0.7-1.6,1.4-2.6,2.3
		c-0.2,0.2-0.4,0.3-0.5,0.2c0-0.1-0.1-0.1-0.1-0.2s0-0.2,0.1-0.3c0.5-0.4,1.2-1,1.9-1.6c0.7-0.7,1.5-1.3,2.3-2s1.5-1.3,2.2-1.9
		C262.1,80.5,262.6,80.1,263,79.8L263,79.8z M281.2,65.1c-0.7,0.1-1.5,0.5-2.6,1.2s-2.2,1.5-3.4,2.5c-1.2,1-2.4,2.1-3.6,3.2
		c-1.2,1.2-2.3,2.3-3.2,3.4c2.1-1.6,4-3.1,5.7-4.4c0.7-0.6,1.5-1.2,2.2-1.8c0.7-0.6,1.4-1.2,2.1-1.7c0.6-0.5,1.2-1,1.7-1.4
		C280.6,65.6,281,65.3,281.2,65.1L281.2,65.1z"/>
	<path class="st0" d="M287,85.5c0.2-0.2,0.4-0.3,0.5-0.2c0,0,0.1,0.1,0.1,0.2s0,0.2-0.1,0.3c-1.2,1.2-2.2,2.2-3.3,2.9
		c-1,0.8-2,1.4-2.9,2c-0.9,0.5-1.8,1-2.7,1.3c-0.9,0.3-1.7,0.7-2.6,1c-0.4,0.4-0.9,0.8-1.5,1.2c-0.6,0.3-1.2,0.6-1.9,0.7
		c-0.6,0.1-1.3,0.2-1.8,0.2c-0.6,0-1.1-0.2-1.6-0.5s-0.8-0.7-1-1.3c-0.2-0.6-0.3-1.3-0.1-2.1c0.1-0.4,0.2-0.9,0.5-1.5s0.6-1.2,1-1.8
		c0.4-0.6,0.9-1.3,1.4-1.9s1.1-1.2,1.8-1.8c0.6-0.6,1.3-1,2.1-1.5c0.8-0.4,1.5-0.7,2.4-0.9c0.3-0.1,0.7-0.1,1.2-0.2
		c0.5,0,1,0.1,1.4,0.4c0.7,0.3,1.1,0.7,1.3,1.3c0.2,0.5,0.3,1.1,0.1,1.8c-0.1,0.7-0.3,1.3-0.7,2c-0.3,0.7-0.7,1.3-1.1,2
		c-0.4,0.6-0.8,1.2-1.2,1.6c-0.4,0.5-0.7,0.8-0.9,1c1.3-0.5,2.4-1,3.4-1.6s2-1.2,2.8-1.7c0.8-0.6,1.5-1.1,2.1-1.6
		C286.1,86.3,286.6,85.9,287,85.5L287,85.5z M279.4,83c-0.1-0.1-0.2-0.1-0.5-0.2s-0.7,0-1.1,0.2c-0.5,0.2-1,0.6-1.7,1.3
		c-0.7,0.6-1.4,1.6-2.2,2.9c-0.4,0.7-0.7,1.3-0.9,1.9c-0.2,0.6-0.3,1.1-0.4,1.6c0,0.5,0,0.8,0.2,1.1c0.1,0.3,0.4,0.4,0.7,0.4
		c0.3,0,0.7-0.2,1.2-0.6s1-0.9,1.5-1.5s1.1-1.3,1.6-2s0.9-1.4,1.3-2.1c0.3-0.7,0.6-1.3,0.7-1.8C279.7,83.6,279.6,83.2,279.4,83
		L279.4,83z M272.4,93.4c-0.6,0-1-0.3-1.3-0.7c-0.2-0.4-0.3-1-0.3-1.6c0.1-0.7,0.2-1.4,0.6-2.2c0.3-0.8,0.7-1.6,1.3-2.4
		c0.5-0.8,1.1-1.5,1.8-2.2c0.7-0.7,1.4-1.2,2.2-1.6c-1,0.5-2,1.2-2.8,2s-1.5,1.7-2.1,2.6s-1.1,1.8-1.4,2.6c-0.3,0.8-0.6,1.5-0.6,2.1
		c-0.1,0.6,0,1,0.2,1.3s0.4,0.4,0.7,0.5c0.3,0.1,0.6,0.1,0.9,0C271.9,93.5,272.1,93.5,272.4,93.4L272.4,93.4z"/>
	<path class="st0" d="M286.3,87c-0.2,0.2-0.4,0.3-0.5,0.2c-0.1-0.1-0.1-0.1-0.1-0.2s0-0.2,0.1-0.3c0.7-0.6,1.4-1.2,2.1-1.8
		c0.7-0.6,1.3-1.1,1.9-1.6s1.3-0.8,1.9-1.1c0.7-0.2,1.3-0.3,2-0.2c0.5,0.1,0.7,0.3,0.7,0.7c0,0.4-0.2,0.9-0.6,1.4
		c-0.3,0.6-0.8,1.2-1.4,1.9c-0.6,0.7-1.2,1.4-1.9,2.1c-0.7,0.7-1.3,1.4-2,2.1s-1.3,1.3-1.8,1.8s-0.9,0.9-1.2,1.2
		c-0.3,0.3-0.3,0.4-0.2,0.3c1.2-0.7,2.5-1.6,3.8-2.5s2.5-1.8,3.7-2.8c1.2-0.9,2.4-1.8,3.5-2.6c1.1-0.8,2.1-1.5,3.1-2.1
		c0.9-0.6,1.8-0.9,2.5-1.1s1.3-0.1,1.7,0.2c0.6,0.4,0.8,1,0.8,1.6c-0.1,0.7-0.3,1.4-0.7,2.1c-0.4,0.8-0.9,1.5-1.5,2.3
		s-1.2,1.5-1.7,2.2c-0.6,0.7-1,1.3-1.4,1.8s-0.5,0.8-0.4,1s0.3,0.2,0.7,0c0.4-0.2,0.9-0.5,1.5-0.9s1.3-0.9,2.1-1.5
		c0.8-0.6,1.6-1.2,2.4-1.9c0.8-0.6,1.6-1.3,2.4-1.9c0.8-0.7,1.5-1.2,2.1-1.8c0.2-0.2,0.4-0.3,0.5-0.2c0.1,0,0.1,0.1,0.1,0.2
		s0,0.2-0.1,0.3c-0.5,0.4-1.1,0.9-1.8,1.6c-0.7,0.6-1.5,1.3-2.3,2s-1.6,1.4-2.5,2.1s-1.7,1.3-2.5,1.9s-1.6,1-2.3,1.3
		c-0.7,0.3-1.3,0.4-1.8,0.3c-0.6-0.1-0.9-0.4-0.9-0.9s0.2-1.1,0.6-1.7c0.4-0.7,0.9-1.4,1.5-2.1c0.6-0.8,1.2-1.5,1.7-2.2
		s1-1.3,1.3-1.8s0.4-0.8,0.2-0.9c-0.3-0.2-0.7-0.2-1.2,0s-1.2,0.4-1.9,0.8c-0.7,0.4-1.5,0.9-2.4,1.4c-0.9,0.6-1.8,1.1-2.6,1.8
		c-0.9,0.6-1.8,1.2-2.6,1.9c-0.9,0.6-1.7,1.2-2.4,1.7c-0.7,0.5-1.4,1-1.9,1.3c-0.5,0.4-0.9,0.6-1.2,0.7c-0.5,0.2-1,0.2-1.3,0
		c-0.4-0.2-0.5-0.6-0.5-1.1c0.1-0.5,0.3-1.1,0.8-1.7c0.5-0.7,1.1-1.4,1.8-2.1c0.7-0.7,1.4-1.5,2.2-2.2c0.8-0.7,1.5-1.4,2.1-2
		s1.1-1.1,1.5-1.6c0.4-0.4,0.5-0.7,0.3-0.8c-0.1-0.1-0.3-0.1-0.5-0.1c-0.2,0.1-0.5,0.2-0.8,0.3c-0.3,0.2-0.6,0.4-1,0.6
		c-0.3,0.2-0.7,0.5-1,0.7C288.1,85.4,287.2,86.1,286.3,87L286.3,87z"/>
</g>
<path class="st2" d="M24.6,154l-3.6-4l3.6-4V154L24.6,154z M10.8,155.5h12.6l-3.7-4l-2,2.2c-0.4,0.4-0.9,0.4-1.3,0l-2-2.2
	L10.8,155.5L10.8,155.5z M9.5,154v-8l3.6,4L9.5,154L9.5,154z M23.4,144.5H10.7l4.4,4.8l2,2.2l2-2.2L23.4,144.5L23.4,144.5z
	 M23.7,142.5H10.4c-1.6,0-2.8,1.3-2.8,3v9c0,1.7,1.3,3,2.8,3h13.2c1.6,0,2.8-1.3,2.8-3v-9C26.5,143.8,25.2,142.5,23.7,142.5z"/>
<path class="st2" d="M17,134c4.4,0,8.4,1.8,11.3,4.7S33,145.6,33,150s-1.8,8.4-4.7,11.3c-2.9,2.9-6.9,4.7-11.3,4.7
	s-8.4-1.8-11.3-4.7C2.8,158.5,1,154.5,1,150c0-4.4,1.8-8.4,4.7-11.3C8.6,135.8,12.6,134,17,134L17,134z M27.6,139.5
	c-2.7-2.7-6.4-4.4-10.6-4.4c-4.1,0-7.9,1.7-10.6,4.4S2,145.9,2,150.1c0,4.1,1.7,7.9,4.4,10.6c2.7,2.7,6.4,4.4,10.6,4.4
	c4.1,0,7.9-1.7,10.6-4.4s4.4-6.4,4.4-10.6S30.3,142.2,27.6,139.5z"/>
<path class="st2" d="M17,168c4.4,0,8.4,1.8,11.3,4.7S33,179.6,33,184s-1.8,8.4-4.7,11.3c-2.9,2.9-6.9,4.7-11.3,4.7
	s-8.4-1.8-11.3-4.7C2.8,192.4,1,188.4,1,184s1.8-8.4,4.7-11.3C8.6,169.8,12.6,168,17,168L17,168z M27.6,173.3
	c-2.7-2.7-6.5-4.4-10.7-4.4s-7.9,1.7-10.7,4.4c-2.7,2.7-4.4,6.5-4.4,10.7s1.7,7.9,4.4,10.6c2.7,2.7,6.5,4.4,10.7,4.4
	s7.9-1.7,10.7-4.4c2.7-2.7,4.4-6.5,4.4-10.6C32,179.8,30.4,176.1,27.6,173.3z"/>
<path class="st2" d="M11.9,172.3H22c0.7,0,1.2,0.5,1.2,1.2v21.3c0,0.7-0.5,1.2-1.2,1.2H11.9c-0.7,0-1.2-0.5-1.2-1.2v-21.3
	C10.7,172.8,11.3,172.3,11.9,172.3L11.9,172.3z M17,193.2c-0.6,0-1.1,0.5-1.1,1.1s0.5,1.1,1.1,1.1s1.1-0.5,1.1-1.1
	C18.1,193.6,17.6,193.2,17,193.2L17,193.2z M11.8,175.3v17.1h10.3v-17.1H11.8z"/>
<path class="st2" d="M16.9,203c4.4,0,8.4,1.8,11.3,4.7s4.7,6.9,4.7,11.3c0,4.4-1.8,8.4-4.7,11.3c-2.9,2.9-6.9,4.7-11.3,4.7
	s-8.4-1.8-11.3-4.7s-4.7-6.9-4.7-11.3c0-4.4,1.8-8.4,4.7-11.3C8.5,204.8,12.5,203,16.9,203L16.9,203z M27.4,208.4
	c-2.7-2.7-6.4-4.3-10.5-4.3s-7.8,1.7-10.5,4.3c-2.7,2.7-4.3,6.4-4.3,10.5s1.7,7.8,4.3,10.5c2.7,2.7,6.4,4.3,10.5,4.3
	s7.8-1.7,10.5-4.3s4.3-6.4,4.3-10.5C31.7,214.8,30.1,211.1,27.4,208.4z"/>
<path class="st2" d="M16.9,231.7c2-8.5,8.1-12.8,8.1-17c0-4.3-2-8.5-8.1-8.5c-6,0-8,4.3-8,8.5S14.9,223.2,16.9,231.7L16.9,231.7z
	 M16.9,211.4c1.8,0,3.3,1.5,3.3,3.3s-1.5,3.3-3.3,3.3s-3.3-1.5-3.3-3.3C13.6,212.9,15.1,211.4,16.9,211.4z"/>
<path class="st3" d="M68.2,161.5l-4.1-0.1c-1.1,0-2.1-0.3-2.7-0.8c-1.8-1.3-1.4-5.7-1.4-8.2c0-0.5,0-1.1,0-1.6
	c0.2-1.5-0.3-4.2,3.3-4.7c1.5-0.2,7.8-0.2,9,0c2.1,0.3,3.1,1.7,3.1,3.8l0.1,4.2c0,2,0.2,5-1.1,6.3c-0.5,0.5-1.6,1-2.7,1
	C70.6,161.5,69.5,161.5,68.2,161.5L68.2,161.5z M64.4,144.3c-3.9,0-6.1,2.2-6.1,6.1v6.8c0,4,2.2,6.1,6.3,6.1h6.5
	c4.2,0,6.3-2.1,6.3-6.3v-6.5c0-4-2-6.3-6.1-6.3L64.4,144.3L64.4,144.3z"/>
<path class="st3" d="M67.8,156.9c-1.6,0-3-1.4-3-3.2c0-1.6,1.4-3,3.2-3c1.6,0,3,1.4,3,3C71,155.5,69.6,156.9,67.8,156.9L67.8,156.9z
	 M62.9,153.7c0,1.9,1.2,3.7,2.9,4.5c4.1,1.9,8.3-2.4,6.5-6.5C70.1,146.9,62.9,148.5,62.9,153.7z"/>
<path class="st3" d="M71.7,148.8c0,0.4,0.1,0.6,0.3,0.8c0.8,0.9,2,0.2,2.1-0.7C74.1,147.3,71.7,147.3,71.7,148.8z"/>
<path class="st3" d="M67.8,134.8c5.2,0,10,2.1,13.4,5.6c3.4,3.4,5.6,8.2,5.6,13.4s-2.1,10-5.6,13.4c-3.4,3.4-8.2,5.6-13.4,5.6
	s-10-2.1-13.4-5.6c-3.4-3.4-5.6-8.2-5.6-13.4s2.1-10,5.6-13.4C57.8,136.9,62.6,134.8,67.8,134.8L67.8,134.8z M80.4,141.2
	c-3.2-3.2-7.6-5.2-12.5-5.2s-9.3,2-12.5,5.2s-5.2,7.6-5.2,12.5s2,9.3,5.2,12.5s7.6,5.2,12.5,5.2s9.3-2,12.5-5.2s5.2-7.6,5.2-12.5
	C85.5,148.9,83.6,144.4,80.4,141.2z"/>
<path class="st3" d="M71,202v-7.4h2.7c0.1-0.4,0.3-2.1,0.5-2.3c0-0.4,0.1-0.6,0.1-1H71c0-3.8-0.6-4,3.3-4V184
	c-2.5,0.1-4.5-0.3-6,1.2c-1.4,1.4-1.2,3.7-1.2,6h-3.3v3.3h3.3v9.3h4L71,202z"/>
<path class="st3" d="M69,175c5.2,0,10,2.1,13.4,5.6c3.4,3.4,5.6,8.2,5.6,13.4s-2.1,10-5.6,13.4C79,210.9,74.2,213,69,213
	s-10-2.1-13.4-5.6C52.1,204,50,199.2,50,194s2.1-10,5.6-13.4C59,177.1,63.8,175,69,175L69,175z M81.5,181.5
	c-3.2-3.2-7.6-5.2-12.5-5.2s-9.3,2-12.5,5.2s-5.2,7.6-5.2,12.5s2,9.3,5.2,12.5s7.6,5.2,12.5,5.2s9.3-2,12.5-5.2s5.2-7.6,5.2-12.5
	S84.7,184.7,81.5,181.5z"/>
<path class="st3" d="M65.1,242.8c8.1,0,12.6-6.7,12.6-12.6c0-0.2,0-0.4,0-0.6c0.9-0.6,1.6-1.4,2.2-2.3c-0.8,0.4-1.6,0.6-2.5,0.7
	c0.9-0.6,1.6-1.4,1.9-2.4c-0.9,0.5-1.8,0.9-2.8,1.1c-0.8-0.9-2-1.4-3.2-1.4c-2.4,0-4.4,2-4.4,4.4c0,0.3,0,0.7,0.1,1
	c-3.7-0.2-6.9-1.9-9.1-4.6c-0.4,0.7-0.6,1.4-0.6,2.2c0,1.5,0.8,2.9,2,3.7c-0.7,0-1.4-0.2-2-0.6v0.1c0,2.1,1.5,3.9,3.6,4.3
	c-0.4,0.1-0.8,0.2-1.2,0.2c-0.3,0-0.6,0-0.8-0.1c0.6,1.8,2.2,3,4.1,3.1c-1.5,1.2-3.4,1.9-5.5,1.9c-0.4,0-0.7,0-1.1-0.1
	C60.3,242.1,62.6,242.8,65.1,242.8z"/>
<path class="st3" d="M69.1,215c5.3,0,10,2.1,13.5,5.6s5.6,8.2,5.6,13.5s-2.1,10-5.6,13.5s-8.2,5.6-13.5,5.6s-10-2.1-13.5-5.6
	s-5.6-8.2-5.6-13.5s2.1-10,5.6-13.5C59,217.1,63.8,215,69.1,215L69.1,215z M81.7,221.5c-3.2-3.2-7.7-5.2-12.6-5.2s-9.4,2-12.6,5.2
	c-3.2,3.2-5.2,7.7-5.2,12.6c0,4.9,2,9.4,5.2,12.6c3.2,3.2,7.7,5.2,12.6,5.2s9.4-2,12.6-5.2s5.2-7.7,5.2-12.6
	C86.9,229.2,84.9,224.7,81.7,221.5z"/>
<path class="st3" d="M70,255c5.2,0,10,2.1,13.4,5.6c3.4,3.4,5.6,8.2,5.6,13.4c0,5.2-2.1,10-5.6,13.4C80,290.8,75.2,293,70,293
	s-10-2.1-13.4-5.6C53.1,284,51,279.2,51,274s2.1-10,5.6-13.4C60,257.1,64.7,255,70,255L70,255z M82.5,261.5
	c-3.2-3.2-7.6-5.2-12.5-5.2s-9.3,2-12.5,5.2s-5.2,7.6-5.2,12.5s2,9.3,5.2,12.5s7.6,5.2,12.5,5.2s9.3-2,12.5-5.2s5.2-7.6,5.2-12.5
	S85.7,264.7,82.5,261.5z"/>
<path class="st3" d="M73.5,272.7l-8.8-0.1v3.2h5.2c-0.9,5.1-8.8,5.6-10.7-0.1c-1.5-4.8,3.3-9.1,7.7-7.2c0.7,0.3,1,0.7,1.5,0.9
	l2.5-2.3c-1.1-1.3-3.4-2.4-5.7-2.5c-2.6-0.1-4.8,0.9-6.3,2c-2.9,2.3-4.7,7.2-2.4,11.7C60.8,286.8,75.2,284.1,73.5,272.7z"/>
<polygon class="st3" points="79.3,270 82,270 82,272.7 84.5,272.7 84.5,275.3 82,275.3 82,277.9 79.3,277.9 79.3,275.3 76.7,275.3 
	76.7,272.7 79.3,272.7 "/>
<path class="st0" d="M111.2,161.5l-4.1-0.1c-1.1,0-2.1-0.3-2.7-0.8c-1.8-1.3-1.4-5.7-1.4-8.2c0-0.5,0-1.1,0-1.6
	c0.2-1.5-0.3-4.2,3.3-4.7c1.5-0.2,7.8-0.2,9,0c2.1,0.3,3.1,1.7,3.1,3.8l0.1,4.2c0,2,0.2,5-1.1,6.3c-0.5,0.5-1.6,1-2.7,1
	C113.6,161.5,112.5,161.5,111.2,161.5L111.2,161.5z M107.4,144.3c-3.9,0-6.1,2.2-6.1,6.1v6.8c0,4,2.2,6.1,6.3,6.1h6.5
	c4.2,0,6.3-2.1,6.3-6.3v-6.5c0-4-2-6.3-6.1-6.3L107.4,144.3L107.4,144.3z"/>
<path class="st0" d="M110.8,156.9c-1.6,0-3-1.4-3-3.2c0-1.6,1.4-3,3.2-3c1.6,0,3,1.4,3,3C114,155.5,112.6,156.9,110.8,156.9
	L110.8,156.9z M105.9,153.7c0,1.9,1.2,3.7,2.9,4.5c4.1,1.9,8.3-2.4,6.5-6.5C113.1,146.9,105.9,148.5,105.9,153.7z"/>
<path class="st0" d="M114.7,148.8c0,0.4,0.1,0.6,0.3,0.8c0.8,0.9,2,0.2,2.1-0.7C117.1,147.3,114.7,147.3,114.7,148.8z"/>
<path class="st0" d="M110.8,134.8c5.2,0,10,2.1,13.4,5.6c3.4,3.4,5.6,8.2,5.6,13.4s-2.1,10-5.6,13.4c-3.4,3.4-8.2,5.6-13.4,5.6
	c-5.2,0-10-2.1-13.4-5.6c-3.4-3.4-5.6-8.2-5.6-13.4s2.1-10,5.6-13.4C100.8,136.9,105.6,134.8,110.8,134.8L110.8,134.8z M123.4,141.2
	c-3.2-3.2-7.6-5.2-12.5-5.2s-9.3,2-12.5,5.2s-5.2,7.6-5.2,12.5s2,9.3,5.2,12.5s7.6,5.2,12.5,5.2s9.3-2,12.5-5.2s5.2-7.6,5.2-12.5
	C128.5,148.9,126.6,144.4,123.4,141.2z"/>
<path class="st0" d="M114,202v-7.4h2.7c0.1-0.4,0.3-2.1,0.5-2.3c0-0.4,0.1-0.6,0.1-1H114c0-3.8-0.6-4,3.3-4V184
	c-2.5,0.1-4.5-0.3-6,1.2c-1.4,1.4-1.2,3.7-1.2,6h-3.3v3.3h3.3v9.3h4L114,202z"/>
<path class="st0" d="M112,175c5.2,0,10,2.1,13.4,5.6c3.4,3.4,5.6,8.2,5.6,13.4s-2.1,10-5.6,13.4c-3.4,3.5-8.2,5.6-13.4,5.6
	s-10-2.1-13.4-5.6C95.1,204,93,199.2,93,194s2.1-10,5.6-13.4C102,177.1,106.8,175,112,175L112,175z M124.5,181.5
	c-3.2-3.2-7.6-5.2-12.5-5.2s-9.3,2-12.5,5.2s-5.2,7.6-5.2,12.5s2,9.3,5.2,12.5s7.6,5.2,12.5,5.2s9.3-2,12.5-5.2s5.2-7.6,5.2-12.5
	S127.7,184.7,124.5,181.5z"/>
<path class="st0" d="M108.1,242.8c8.1,0,12.6-6.7,12.6-12.6c0-0.2,0-0.4,0-0.6c0.9-0.6,1.6-1.4,2.2-2.3c-0.8,0.4-1.6,0.6-2.5,0.7
	c0.9-0.6,1.6-1.4,1.9-2.4c-0.9,0.5-1.8,0.9-2.8,1.1c-0.8-0.9-2-1.4-3.2-1.4c-2.4,0-4.4,2-4.4,4.4c0,0.3,0,0.7,0.1,1
	c-3.7-0.2-6.9-1.9-9.1-4.6c-0.4,0.7-0.6,1.4-0.6,2.2c0,1.5,0.8,2.9,2,3.7c-0.7,0-1.4-0.2-2-0.6v0.1c0,2.1,1.5,3.9,3.6,4.3
	c-0.4,0.1-0.8,0.2-1.2,0.2c-0.3,0-0.6,0-0.8-0.1c0.6,1.8,2.2,3,4.1,3.1c-1.5,1.2-3.4,1.9-5.5,1.9c-0.4,0-0.7,0-1.1-0.1
	C103.3,242.1,105.6,242.8,108.1,242.8z"/>
<path class="st0" d="M112.1,215c5.3,0,10,2.1,13.5,5.6c3.5,3.5,5.6,8.2,5.6,13.5s-2.1,10-5.6,13.5c-3.5,3.5-8.2,5.6-13.5,5.6
	s-10-2.1-13.5-5.6s-5.6-8.2-5.6-13.5s2.1-10,5.6-13.5C102,217.1,106.8,215,112.1,215L112.1,215z M124.7,221.5
	c-3.2-3.2-7.7-5.2-12.6-5.2s-9.4,2-12.6,5.2s-5.2,7.7-5.2,12.6c0,4.9,2,9.4,5.2,12.6c3.2,3.2,7.7,5.2,12.6,5.2s9.4-2,12.6-5.2
	s5.2-7.7,5.2-12.6S127.9,224.7,124.7,221.5z"/>
<path class="st3" d="M148.5,150.1h-2c-0.5,0-1-0.1-1.3-0.4c-0.9-0.6-0.7-2.8-0.7-4.1c0-0.2,0-0.5,0-0.8c0.1-0.7-0.1-2.1,1.6-2.3
	c0.7-0.1,3.9-0.1,4.5,0c1,0.1,1.5,0.8,1.5,1.9v2.1c0,1,0.1,2.5-0.5,3.1c-0.2,0.2-0.8,0.5-1.3,0.5
	C149.6,150.1,149.1,150.1,148.5,150.1L148.5,150.1z M146.6,141.5c-1.9,0-3,1.1-3,3v3.4c0,2,1.1,3,3.1,3h3.2c2.1,0,3.1-1,3.1-3.1
	v-3.2c0-2-1-3.1-3-3.1L146.6,141.5L146.6,141.5z"/>
<path class="st3" d="M148.3,147.8c-0.8,0-1.5-0.7-1.5-1.6c0-0.8,0.7-1.5,1.6-1.5c0.8,0,1.5,0.7,1.5,1.5
	C149.8,147.1,149.2,147.8,148.3,147.8L148.3,147.8z M145.8,146.2c0,0.9,0.6,1.8,1.4,2.2c2,0.9,4.1-1.2,3.2-3.2
	C149.4,142.8,145.8,143.6,145.8,146.2z"/>
<path class="st3" d="M150.2,143.8c0,0.2,0,0.3,0.1,0.4c0.4,0.4,1,0.1,1-0.3C151.4,143,150.2,143,150.2,143.8z"/>
<path class="st3" d="M148.3,136.8c2.6,0,5,1,6.7,2.8c1.7,1.7,2.8,4.1,2.8,6.7c0,2.6-1,5-2.8,6.7c-1.7,1.7-4.1,2.8-6.7,2.8
	c-2.6,0-5-1-6.7-2.8c-1.7-1.7-2.8-4.1-2.8-6.7c0-2.6,1-5,2.8-6.7C143.3,137.8,145.7,136.8,148.3,136.8L148.3,136.8z M154.5,140
	c-1.6-1.6-3.8-2.6-6.2-2.6s-4.6,1-6.2,2.6c-1.6,1.6-2.6,3.8-2.6,6.2s1,4.6,2.6,6.2c1.6,1.6,3.8,2.6,6.2,2.6s4.6-1,6.2-2.6
	s2.6-3.8,2.6-6.2S156.1,141.6,154.5,140z"/>
<path class="st3" d="M149.8,170.2v-3.7h1.3c0-0.2,0.1-1,0.2-1.1c0-0.2,0-0.3,0-0.5h-1.6c0-1.9-0.3-2,1.6-2v-1.6
	c-1.2,0-2.2-0.1-3,0.6c-0.7,0.7-0.6,1.8-0.6,3h-1.6v1.6h1.6v4.6h2L149.8,170.2z"/>
<path class="st3" d="M148.9,156.8c2.6,0,5,1,6.7,2.8c1.7,1.7,2.8,4.1,2.8,6.7c0,2.6-1,5-2.8,6.7c-1.7,1.7-4.1,2.8-6.7,2.8
	s-5-1-6.7-2.8c-1.7-1.7-2.8-4.1-2.8-6.7c0-2.6,1-5,2.8-6.7C143.9,157.9,146.3,156.8,148.9,156.8L148.9,156.8z M155.1,160
	c-1.6-1.6-3.8-2.6-6.2-2.6s-4.6,1-6.2,2.6c-1.6,1.6-2.6,3.8-2.6,6.2s1,4.6,2.6,6.2c1.6,1.6,3.8,2.6,6.2,2.6s4.6-1,6.2-2.6
	c1.6-1.6,2.6-3.8,2.6-6.2S156.7,161.6,155.1,160z"/>
<path class="st3" d="M146.9,190.5c4,0,6.3-3.3,6.3-6.3c0-0.1,0-0.2,0-0.3c0.4-0.3,0.8-0.7,1.1-1.1c-0.4,0.2-0.8,0.3-1.2,0.3
	c0.4-0.3,0.8-0.7,0.9-1.2c-0.4,0.2-0.9,0.4-1.4,0.5c-0.4-0.4-1-0.7-1.6-0.7c-1.2,0-2.2,1-2.2,2.2c0,0.1,0,0.3,0,0.5
	c-1.8-0.1-3.4-0.9-4.5-2.3c-0.2,0.3-0.3,0.7-0.3,1.1c0,0.7,0.4,1.4,1,1.8c-0.3,0-0.7-0.1-1-0.3l0,0c0,1,0.7,1.9,1.8,2.1
	c-0.2,0-0.4,0.1-0.6,0.1c-0.1,0-0.3,0-0.4,0c0.3,0.9,1.1,1.5,2,1.5c-0.7,0.6-1.7,0.9-2.7,0.9c-0.2,0-0.3,0-0.5,0
	C144.5,190.2,145.7,190.5,146.9,190.5z"/>
<path class="st3" d="M148.9,176.7c2.6,0,5,1,6.7,2.8c1.7,1.7,2.8,4.1,2.8,6.7c0,2.6-1,5-2.8,6.7c-1.7,1.7-4.1,2.8-6.7,2.8
	c-2.6,0-5-1-6.7-2.8c-1.7-1.7-2.8-4.1-2.8-6.7c0-2.6,1-5,2.8-6.7C143.9,177.8,146.3,176.7,148.9,176.7L148.9,176.7z M155.2,179.9
	c-1.6-1.6-3.8-2.6-6.3-2.6c-2.4,0-4.7,1-6.3,2.6s-2.6,3.8-2.6,6.3c0,2.4,1,4.7,2.6,6.3s3.8,2.6,6.3,2.6c2.4,0,4.7-1,6.3-2.6
	s2.6-3.8,2.6-6.3C157.8,183.8,156.8,181.5,155.2,179.9z"/>
<path class="st0" d="M169.9,150.1h-2c-0.5,0-1-0.1-1.3-0.4c-0.9-0.6-0.7-2.8-0.7-4.1c0-0.2,0-0.5,0-0.8c0.1-0.7-0.1-2.1,1.6-2.3
	c0.7-0.1,3.9-0.1,4.5,0c1,0.1,1.5,0.8,1.5,1.9v2.1c0,1,0.1,2.5-0.5,3.1c-0.2,0.2-0.8,0.5-1.3,0.5C171,150.1,170.5,150.1,169.9,150.1
	L169.9,150.1z M168,141.5c-1.9,0-3,1.1-3,3v3.4c0,2,1.1,3,3.1,3h3.2c2.1,0,3.1-1,3.1-3.1v-3.2c0-2-1-3.1-3-3.1L168,141.5L168,141.5z
	"/>
<path class="st0" d="M169.7,147.8c-0.8,0-1.5-0.7-1.5-1.6c0-0.8,0.7-1.5,1.6-1.5c0.8,0,1.5,0.7,1.5,1.5
	C171.2,147.1,170.6,147.8,169.7,147.8L169.7,147.8z M167.2,146.2c0,0.9,0.6,1.8,1.4,2.2c2,0.9,4.1-1.2,3.2-3.2
	C170.8,142.8,167.2,143.6,167.2,146.2z"/>
<path class="st0" d="M171.6,143.8c0,0.2,0,0.3,0.1,0.4c0.4,0.4,1,0.1,1-0.3C172.8,143,171.6,143,171.6,143.8z"/>
<path class="st0" d="M169.7,136.8c2.6,0,5,1,6.7,2.8c1.7,1.7,2.8,4.1,2.8,6.7c0,2.6-1,5-2.8,6.7c-1.7,1.7-4.1,2.8-6.7,2.8
	s-5-1-6.7-2.8c-1.7-1.7-2.8-4.1-2.8-6.7c0-2.6,1-5,2.8-6.7C164.7,137.8,167.1,136.8,169.7,136.8L169.7,136.8z M175.9,140
	c-1.6-1.6-3.8-2.6-6.2-2.6s-4.6,1-6.2,2.6s-2.6,3.8-2.6,6.2s1,4.6,2.6,6.2s3.8,2.6,6.2,2.6s4.6-1,6.2-2.6s2.6-3.8,2.6-6.2
	S177.5,141.6,175.9,140z"/>
<path class="st0" d="M171.2,170.2v-3.7h1.3c0-0.2,0.1-1,0.2-1.1c0-0.2,0-0.3,0-0.5h-1.6c0-1.9-0.3-2,1.6-2v-1.6
	c-1.2,0-2.2-0.1-3,0.6c-0.7,0.7-0.6,1.8-0.6,3h-1.6v1.6h1.6v4.6h2L171.2,170.2z"/>
<path class="st0" d="M170.3,156.8c2.6,0,5,1,6.7,2.8c1.7,1.7,2.8,4.1,2.8,6.7c0,2.6-1,5-2.8,6.7c-1.7,1.7-4.1,2.8-6.7,2.8
	s-5-1-6.7-2.8c-1.7-1.7-2.8-4.1-2.8-6.7c0-2.6,1-5,2.8-6.7C165.3,157.9,167.7,156.8,170.3,156.8L170.3,156.8z M176.5,160
	c-1.6-1.6-3.8-2.6-6.2-2.6s-4.6,1-6.2,2.6s-2.6,3.8-2.6,6.2s1,4.6,2.6,6.2s3.8,2.6,6.2,2.6s4.6-1,6.2-2.6s2.6-3.8,2.6-6.2
	S178.1,161.6,176.5,160z"/>
<path class="st0" d="M168.3,190.5c4,0,6.3-3.3,6.3-6.3c0-0.1,0-0.2,0-0.3c0.4-0.3,0.8-0.7,1.1-1.1c-0.4,0.2-0.8,0.3-1.2,0.3
	c0.4-0.3,0.8-0.7,0.9-1.2c-0.4,0.2-0.9,0.4-1.4,0.5c-0.4-0.4-1-0.7-1.6-0.7c-1.2,0-2.2,1-2.2,2.2c0,0.1,0,0.3,0,0.5
	c-1.8-0.1-3.4-0.9-4.5-2.3c-0.2,0.3-0.3,0.7-0.3,1.1c0,0.7,0.4,1.4,1,1.8c-0.3,0-0.7-0.1-1-0.3l0,0c0,1,0.7,1.9,1.8,2.1
	c-0.2,0-0.4,0.1-0.6,0.1c-0.1,0-0.3,0-0.4,0c0.3,0.9,1.1,1.5,2,1.5c-0.7,0.6-1.7,0.9-2.7,0.9c-0.2,0-0.3,0-0.5,0
	C165.9,190.2,167.1,190.5,168.3,190.5z"/>
<path class="st0" d="M170.3,176.7c2.6,0,5,1,6.7,2.8c1.7,1.7,2.8,4.1,2.8,6.7c0,2.6-1,5-2.8,6.7c-1.7,1.7-4.1,2.8-6.7,2.8
	s-5-1-6.7-2.8s-2.8-4.1-2.8-6.7c0-2.6,1-5,2.8-6.7C165.3,177.8,167.7,176.7,170.3,176.7L170.3,176.7z M176.6,179.9
	c-1.6-1.6-3.8-2.6-6.3-2.6s-4.7,1-6.3,2.6s-2.6,3.8-2.6,6.3c0,2.4,1,4.7,2.6,6.3s3.8,2.6,6.3,2.6s4.7-1,6.3-2.6s2.6-3.8,2.6-6.3
	C179.2,183.8,178.2,181.5,176.6,179.9z"/>
<rect x="135" y="214" class="st4" width="40" height="40"/>
<path class="st5" d="M156.4,234l8.3-8.3c0.4-0.4,0.4-1,0-1.4s-1-0.4-1.4,0l-8.3,8.3l-8.3-8.3c-0.4-0.4-1-0.4-1.4,0s-0.4,1,0,1.4
	l8.3,8.3l-8.3,8.3c-0.4,0.4-0.4,1,0,1.4c0.2,0.2,0.5,0.3,0.7,0.3s0.5-0.1,0.7-0.3l8.3-8.3l8.3,8.3c0.2,0.2,0.5,0.3,0.7,0.3
	s0.5-0.1,0.7-0.3c0.4-0.4,0.4-1,0-1.4L156.4,234z"/>
<line class="st6" x1="60" y1="301" x2="76" y2="317"/>
<g>
	<line class="st6" x1="60" y1="317" x2="76" y2="301"/>
</g>
<path class="st3" d="M111,255c5.2,0,10,2.1,13.4,5.6c3.4,3.4,5.6,8.2,5.6,13.4c0,5.2-2.1,10-5.6,13.4c-3.4,3.4-8.2,5.6-13.4,5.6
	s-10-2.1-13.4-5.6C94.1,284,92,279.2,92,274s2.1-10,5.6-13.4C101,257.1,105.7,255,111,255L111,255z M123.5,261.5
	c-3.2-3.2-7.6-5.2-12.5-5.2s-9.3,2-12.5,5.2s-5.2,7.6-5.2,12.5s2,9.3,5.2,12.5s7.6,5.2,12.5,5.2s9.3-2,12.5-5.2s5.2-7.6,5.2-12.5
	S126.7,264.7,123.5,261.5z"/>
<path class="st3" d="M114.5,272.7l-8.8-0.1v3.2h5.2c-0.9,5.1-8.8,5.6-10.7-0.1c-1.5-4.8,3.3-9.1,7.7-7.2c0.7,0.3,1,0.7,1.5,0.9
	l2.5-2.3c-1.1-1.3-3.4-2.4-5.7-2.5c-2.6-0.1-4.8,0.9-6.3,2c-2.9,2.3-4.7,7.2-2.4,11.7C101.8,286.8,116.2,284.1,114.5,272.7z"/>
<polygon class="st3" points="120.3,270 123,270 123,272.7 125.5,272.7 125.5,275.3 123,275.3 123,277.9 120.3,277.9 120.3,275.3 
	117.7,275.3 117.7,272.7 120.3,272.7 "/>
<rect x="136" y="266" class="st4" width="40" height="40"/>
<path class="st7" d="M157.4,286l8.3-8.3c0.4-0.4,0.4-1,0-1.4s-1-0.4-1.4,0l-8.3,8.3l-8.3-8.3c-0.4-0.4-1-0.4-1.4,0s-0.4,1,0,1.4
	l8.3,8.3l-8.3,8.3c-0.4,0.4-0.4,1,0,1.4c0.2,0.2,0.5,0.3,0.7,0.3s0.5-0.1,0.7-0.3l8.3-8.3l8.3,8.3c0.2,0.2,0.5,0.3,0.7,0.3
	s0.5-0.1,0.7-0.3c0.4-0.4,0.4-1,0-1.4L157.4,286z"/>
<path class="st0" d="M217,147v14h-14v-14H217 M217,145h-14c-1.1,0-2,0.9-2,2v14c0,1.1,0.9,2,2,2h14c1.1,0,2-0.9,2-2v-14
	C219,145.9,218.1,145,217,145z"/>
<path class="st8" d="M198,142h24v24h-24V142z"/>
<path class="st8" d="M198,166h24v24h-24V166z"/>
<path class="st0" d="M217,169h-14c-1.1,0-2,0.9-2,2v14c0,1.1,0.9,2,2,2h14c1.1,0,2-0.9,2-2v-14C219,169.9,218.1,169,217,169z
	 M208,183l-5-5l1.4-1.4l3.6,3.6l7.6-7.6l1.4,1.4L208,183z"/>
<path class="st8" d="M228,142h24v24h-24V142z"/>
<path class="st8" d="M228,166h24v24h-24V166z"/>
<path class="st0" d="M240,145c-5,0-9,4-9,9s4,9,9,9s9-4,9-9S245,145,240,145z M240,161.2c-4,0-7.2-3.2-7.2-7.2s3.2-7.2,7.2-7.2
	s7.2,3.2,7.2,7.2S244,161.2,240,161.2z"/>
<g>
	<circle class="st0" cx="240" cy="178" r="4.5"/>
	<path class="st0" d="M240,169c-5,0-9,4-9,9s4,9,9,9s9-4,9-9S245,169,240,169z M240,185.2c-4,0-7.2-3.2-7.2-7.2s3.2-7.2,7.2-7.2
		s7.2,3.2,7.2,7.2S244,185.2,240,185.2z"/>
</g>
</svg>
